<mxfile host="app.diagrams.net" modified="2023-11-22T09:43:43.684Z" agent="Mozilla/5.0 (Macintosh; Intel Mac OS X 10_15_7) AppleWebKit/537.36 (KHTML, like Gecko) Chrome/119.0.0.0 Safari/537.36" etag="1kvnnoO_paTMwHd8rBEz" version="22.1.3" type="github">
  <diagram name="Page-1" id="23d1LFLCAiN5H-xoAOgW">
    <mxGraphModel dx="1434" dy="795" grid="1" gridSize="10" guides="1" tooltips="1" connect="1" arrows="1" fold="1" page="1" pageScale="1" pageWidth="850" pageHeight="1100" math="0" shadow="0">
      <root>
        <mxCell id="0" />
        <mxCell id="1" parent="0" />
        <mxCell id="W6AtyXK3xE8ZlmAjTYDJ-1" value="" style="rounded=0;whiteSpace=wrap;html=1;fillColor=#f5f5f5;fontColor=#333333;strokeColor=none;" vertex="1" parent="1">
          <mxGeometry x="160" y="240" width="920" height="440" as="geometry" />
        </mxCell>
        <mxCell id="W6AtyXK3xE8ZlmAjTYDJ-2" value="&lt;font style=&quot;font-size: 15px;&quot; face=&quot;Times New Roman&quot;&gt;Cloud Provier Api&lt;/font&gt;" style="rounded=1;whiteSpace=wrap;html=1;fillColor=#d5e8d4;strokeColor=#82b366;" vertex="1" parent="1">
          <mxGeometry x="450" y="260" width="230" height="80" as="geometry" />
        </mxCell>
        <mxCell id="W6AtyXK3xE8ZlmAjTYDJ-3" value="" style="shape=image;verticalLabelPosition=bottom;labelBackgroundColor=default;verticalAlign=top;aspect=fixed;imageAspect=0;image=data:image/png,iVBORw0KGgoAAAANSUhEUgAAAOEAAADgCAMAAADCMfHtAAAAwFBMVEX///8drv8dlN0AAAAAqv/I5v+r2v8AjNsAj9yhyu35+fnh8Prs7OzIyMhYWFjW1tbj4+OJiYnd3d3y8vJ9fX0+Pj6UlJQAqP9PT0+srKzQ0NBlZWVwcHDh7/q/v7+3t7cgICCfn5+MjIyioqKwsLAoKChJSUnz+f0tmt/G4PVlr+W42fLX6vgQEBCBgYEbGxs2NjZtbW1+u+mq0fCNwutFouFbv/9ss+aCzf87tv9wxv+a1v++5P8qmd9RvP80tP+vaMl6AAAHHElEQVR4nO2cC3eaMBSAo7GTIqKCMhTnW9q1q6tdu+7Rbf//Xy0PXrFQsdaFZPc7O1MjcO7X5CYXCkUIAAAAAAAAAAAAAAAAAAAAAAAAAAAAeAsuWrIjODWt5rnsEE5Mq2lcXssO4qS0mvV68+qT7DBOCDWs1427C9mBnAxuWDfq2qZjZEgcLz/KjuU0JIY0HT/IjuYUZAzrhpbpmDWk6fhFdkBvjmhIHB90S8ddQ5qOehVyzw1JOt6bssM6CnEyyTGk6ah0IfdUO8t8yjUkQ/VB4ULurNH4mmbaRdPIVaw3H5VNx7NGrdb4lozVi8f8XiTpqGohRw1rjdq7pOHTQ5HjLzXTkRkSx+9pOl7Xi4aqkukYGRLHTDreG4XpqF4hlxgSx59Ja+tKn3TMGJJ0fEraP14WOap2XpU1JI6/00z7UpyOSq0coiFx/JGuHHdF3ajUFbldw1ojk44fitKxeSUx5AN5Zkgc/2TS8Vf+UDUelJlUcwxpOqaZdp6/chi/VFHMNRQLufx0NC5lhn0ABYYlCjnjQWLYB1BkSNNxTyFn3EuMuzzFhmIh95ij2FRi7X/JkKZjvN157nwjM/KyvGyYpmOuoXEnN/hS7DGk51Xs2nd+HzYVuC6+17DWYL2Yb2goUNscZ6hCJx5pqEAmHmlYN2QL7OVYw+qviUf3YeWH6bGG9coX4EcbNmUb7ON4w6pftAFDMARD+YAhGIKhfMAQDMFQPmAIhmAoHzAEQzCUDxiCIRjKBwzBEAzlA4ZgCIbyKW1YcD+0Pobo+rLgniFtDIvuh9bJMP9+6GbV7/c+xDD/fmh5sZfjMEOSjjuPJ+hzx1CK+GBb9W9OPNwQtR7TZ2kVeD7oFYYkHa8M1pFKPAD1KkMyrV7fXT1cnVd9paC80lAh9Df8pL0hav14r7kh6cbvLz83o74hQu9qLz39pIMhuvhWrKiHIUnHr0XpqIshWTf+FDxOqo1hUTrqZJifjloZ5qajZoYIPe2mo3aGCP1sNDQ3RBdCIaejISnkfjc0N6R/5ayhuSFNR90N4/MqjQ2j8yqtDVkhp7khKeTea25I0vFs/zYAAAAAAFQVtf9Kdw4mniKEvbSBvZ9gc4Ix7kkL6w0x8YRYLZHlkA+u4yI8Rw6ypgj7nVEHIYf0qYtcE7ld2aG+EhOvXBMPPdJj3Sn5D+EbjJdtTK1pX2I87eCZF5A3G9mxvg4TU6gNHi4wfbG7s80I075EaBCg7czBY3N7i3o3kkN9JSZeWhYejtY3eOhgHFIznxlS68EC9YhhFwU+8pQ1pHk4DGwXDxFq4y6ZaUJmuHUtK9yi8ZoZhgr3IZ1Ll3MyVIcbloceGvRH2KQtPZqHqw520FbdPCQTJaJTpUNfu2RCNU36j3wyO136n8s2CUJL1bm0JPZAdgSnxtG8B/9f2sNNcNOWHcU+2llG7iG7WqxaqLohr2lSZovykmoaEiZl91XWEHdK7quu4W3JfVUy9D1GECk65fZVyXARf/TZx2G5fVUyTC5XdEXh/Ks2ceOLhpW53rNjiOKP7sQLws90+fB7mZmn3WeNt4HniIZuv7/Z9Pnph7u01+SLwTiSd8fkKzpDt/2So+MtKTK8zU49frRGdmZpmyca9tPh7WXmLIs2sO02aHSLs5e8/hVFhv2c2bWTbZoKhg57y05AxsKebmwYsvZ+dQyXQpy8c9bZFnGU+nEbmoo72rFhNBqqY9gmudabL+cbPjBDRJsYa7tvDz7TzkkNJzjpIP5jGMyX0WC1BEMJV0J2DPloI3OpmZSnvHvIm0Xam2TSRVnDWTIiu6krP/QqaziWcJoprodmGEeVMom7gtUD2XP9xNBL3fkg5UtFL/rhxYaBlNNobjjojwn9uKYRIhnFTXbSOxGxIX/ls9Ey7nHCKtqBf7+WVBrk1aXiNZnOXsMte+WrJuvOWdehsPd2vF3Zev6tyTOMutB0OzTO6R7DEc/dLW/zdg9WRUMeysjftS4y5LkbzUzVNxwsefvkeb8WjVL+o7B4W1UNg8mUMBl1kzViN9AXDPkCEfC2Z4ZhNQwXu818dZ/ZQRDY+wzRJnql8JnGylANw2e/7J2zQNlbZ68hP8bndEcsHqyShl468MTVIsxslKz4fLpl5w0rpQx5mdyODbODkZ3gplUbn07pZMN/Hsv4OK6FKmrIu2JldSfjZKaJpleb1ON9X6y8+Uim5xHRFDWejkaT4cJn46CShg7egVYBuw2Zsyfev/Q8vrezI6qoIRrkGApr5EQw5Idh50ZrcUe3qobdJETfjg2jscuZi1cxVslxXLEY6kg3tAn+8vkXFjvRWI9HqO2TLXjJ4s79GxbuOmhTF7pvFPmWHihkFUN7G/XjYDyl+7kh/arkRdh/iem6Ob+loa157SJso8pcUAQAAAAAAAAAAAAAAAAAAAAAAACA/4u//1SP+74mVYwAAAAASUVORK5CYII=;" vertex="1" parent="1">
          <mxGeometry x="230" y="402.8500000000001" width="155" height="154.31" as="geometry" />
        </mxCell>
        <mxCell id="W6AtyXK3xE8ZlmAjTYDJ-4" value="&lt;font style=&quot;font-size: 15px;&quot; face=&quot;Times New Roman&quot;&gt;OS Image Registry&lt;/font&gt;" style="rounded=1;whiteSpace=wrap;html=1;fillColor=#fff2cc;strokeColor=#d6b656;" vertex="1" parent="1">
          <mxGeometry x="780" y="260" width="200" height="80" as="geometry" />
        </mxCell>
        <mxCell id="W6AtyXK3xE8ZlmAjTYDJ-5" value="Image&lt;br&gt;Config" style="shape=note;whiteSpace=wrap;html=1;backgroundOutline=1;darkOpacity=0.05;fillColor=#dae8fc;strokeColor=#6c8ebf;" vertex="1" parent="1">
          <mxGeometry x="272.5" y="557.16" width="70" height="87.16" as="geometry" />
        </mxCell>
        <mxCell id="W6AtyXK3xE8ZlmAjTYDJ-6" value="" style="endArrow=classic;html=1;rounded=0;exitX=0.5;exitY=0;exitDx=0;exitDy=0;" edge="1" parent="1" source="W6AtyXK3xE8ZlmAjTYDJ-3">
          <mxGeometry width="50" height="50" relative="1" as="geometry">
            <mxPoint x="510" y="500" as="sourcePoint" />
            <mxPoint x="440" y="310" as="targetPoint" />
          </mxGeometry>
        </mxCell>
        <mxCell id="W6AtyXK3xE8ZlmAjTYDJ-7" value="â‘ " style="edgeLabel;html=1;align=center;verticalAlign=middle;resizable=0;points=[];fontFamily=Times New Roman;fontSize=13;" vertex="1" connectable="0" parent="W6AtyXK3xE8ZlmAjTYDJ-6">
          <mxGeometry x="0.1737" relative="1" as="geometry">
            <mxPoint x="-15" y="-8" as="offset" />
          </mxGeometry>
        </mxCell>
        <mxCell id="W6AtyXK3xE8ZlmAjTYDJ-8" value="" style="shape=image;verticalLabelPosition=bottom;labelBackgroundColor=default;verticalAlign=top;aspect=fixed;imageAspect=0;image=data:image/png,iVBORw0KGgoAAAANSUhEUgAAAMgAAADICAYAAACtWK6eAAAAAXNSR0IArs4c6QAADsdJREFUeF7tnXvQb9UYxz8ZY45iijKV4cSIk1JJRySlQsitxi2XI0NTHblWTA0pDIUpd6eLy1Aj0VAxGpQuEnGO0enCJEylm8GQIv/IfKf9+p2397b32mvv9ez9+66Z39TUujzPdz2fd9/WWs9GuFgBK7CgAhtZGytgBRZWwIA4OqzAIgoYEIeHFTAgjgErkKaAryBpurnVlChgQKZkou1mmgIGJE03t5oSBQzIlEy03UxTwICk6eZWU6KAAZmSibabaQoYkDTd3GpKFDAgUzLRdjNNAQOSpptbTYkCQwBkF2DTKZmPaXTz0shORwVkFXAAsBewRWQBbVtrBe4BLgbOBc5s3VvmDqIBsgw4BVid2U93NwwF1gBHAvdGMTcSIMuBm6IIYzuKKrANcHNRC6rBIwGyFtg1gii2obgC64CVxa0AogByKHBaBEFsQxgFDgNOL21NFEDOBg4qLYbHD6XAN4DXlrYoCiB3AFuWFsPjh1LgTmCr0hZFAGQn4OrSQnj8kArsDKwvaVkEQPYGLikpgscOq8A+QNEPiQYkbGzYMMCAAL6CmIWFFDAgBsR0LKKAATEgBsSALB4DvsUyI77FWiQGDIgBMSAGxBQkKOBnED+DJITN9DQxIAZkeqI9wVMD0jEgErjvcnzlU9/jjnE8A9IhIFqiUAKQEwBB4tJeAQNiQNpH0Yh7MCAGZMTh3d41A2JA2kfRiHswIAZkxOHd3jUDYkDaR9GIezAgBmTE4d3eNQNiQNpH0Yh7MCAGZMTh3d41A2JA2kfRiHswIAZkxOHd3jUD0iEgmp4SS028Fqs9GDM9GJCOAck3Ve6phAIGxICUiLvBjGlADMhggrWEoQbEgJSIu8GMaUAMyGCCtYShBsSAlIi7wYxpQAzIYIK1hKEGxICUiLvBjGlADMhggrWEoQbEgJSIu8GMaUAAZ5gaTLz2bqgzTFWSO0dh77EXfkDnKNxgipzlNny89m6gs9xuILnzpPcef+EHdJ70B0zRWmDX8NNmA/tQYB2wso+BlhojQhLPGRuXAzctZbD//1QosA1wcwRPIwEiPZYBpwCrI4hjG3pXYA1wJHBv7yMvMGA0QGbMXAXsC+wAbA9sEkUw25FdgfXA1cCPgDOz996yw6iAtHTLza1AHgUMSB4d3ctIFTAgI51Yu5VHAQOSR0f3MlIFDMhIJ9Zu5VHAgOTR0b2MVAEDMtKJtVt5FDAgeXR0LyNVwICMdGLtVh4FDEgeHd3LSBUwICOdWLuVR4HIgKwA9NsO2DiPu+4loALXAfpdH9A2IgKiPSEnAc+LKJht6kyBi4BjAO0FCVOiAXJiJVIYgWxI7wroj+OxvY+6wICRADEcUaKivB1hIIkCyI6A9gW4WIEZBXQc1DWl5YgCyMnVTrLSenj8OApoZ+lRpc2JAshPgWeVFsPjh1LgSmCP0hZFAOSRwF9LC+HxQyqwOfC3kpZFAGRv4JKSInjssAr4bF4fXh02OCMYZkAMSIQ4DGuDATEgYYMzgmEGxIBEiMOwNhgQAxI2OCMYZkAMSIQ4DGuDATEgYYMzgmEGxIBEiMOwNhgQAxI2OCMYZkA6BuTSArOslQEueRQwIB0CIjgkcN/lBOD4vgcd6XgGxICMNLTzuGVADEieSBppLwbEgIw0tPO4ZUAMSJ5IGmkvBsSAjDS087hlQAxInkgaaS8GxICMNLTzuGVADEieSBppLwbEgIw0tPO4ZUAMSJ5IGmkvBsSAjDS087hlQDoERFM07YsVrwVuAG6vfnfM8+9bAQ/8bbnBfyu5+NKAdAxInr9jw+rlCuB84DzgxgymPxx4AbB/9RM8fRUDYkCyxNqFwMwvBxSLGfXcKnfL8wHlcumyGBADkhxf9wCfBr6S6UqRYsiBwNuAfVMa12hjQAxIjTCZW+WLFRx6xohQDq5AWZnZGANiQBqF1AXAZ4CLG7Xqp/KDKkiOAJ6UaUgDYkBqhdJV1RXj7Fq1y1barAJFuyof3NIUA2JAlgyhU4HVS9aKV+ElwFcBpbdILQbEgCwaO+8HPpIaXQHaKSnSWcDjE20xIAZk3tD5N/BC4PLEwIrU7GGAvs3snGCUATEgc8LmF8AzEoKpaZPHAI8F9Lr4zurXtI8m9S8D9mrSoDqVpsRqiP+bGSHDlFOwTaJGy0JWNAyipao/Gnh29dNrWEEhOOYrM6DIju9UP13NcpU1wOENOpOdtzaon71qBEDklJN4wr3V+qd/ZJjl7QB9xHsZ8MwW/cmm723wy5FLUt9w3lLDpt8D29ao12mVKIA4DTTsDvy85Wy/ETiggqNlV3Oa3wacAZxWLXhs078+cO6wRAenA4e1GSRH2yiA7Aisz+HQQPt4c7VkJNV8rYt6D6B/dl1ygXLfEobqdnBd184s1X8UQGTnicAxSxk8wv+vq+fRiX7peeK91Ye5xC6SmwmU44AvJ/awPXDdAm1DXD1kWyRAphGSNucH71Z9iNPzRsnyYeADiQboWUTPJBuWzxcCfl4XogEiI7WE+qRqSXWi7oNo9s/qAfr6BGu15PyihHZdNflZtWdEPjUtMw/tM7duOvw7TIkIyIw4et2pn/5CbhxGsXyG6PbiWwndvRP4VEK7Ppo8J/Hj5qGAbqvClciAhBMrgEFDSK2wE3BNAK2ymGBAssjYSydal6X7/ejlLuApwC3RDa1jnwGpo1L5Om9q+Rq4bw9+DewJ3N33wLnHMyC5Fc3fn74RaR3TI/J33WmP3wZe0ekIPXRuQHoQueUQ5wCvbtlHqeavA4awyWtBfQxIqdCpN+4h1fKOerXj1dJOyDZrwYp7ZECKT8GCBjwK+CWwTVwTa1n2rmq7cK3K0SoZkGgzMrHnrYC+Kg+9/LG6ivx5iI4YkLizdjWgbwpjKFprpjVngysGJOaU7Qf8IKZpSVZpv482bQ2uGJA4U7Y18MTqTKlVCdtT43gyvyXF95enCBQVEAWIjrPUphoti94kxbkO2nyiWl6eo+unVRubtIdDYLQ5HieHPV33oQPvtI5sUCUaIMuAU4KeA6XDoXXCeZsyA4XOjHpqm44G2PZP1R+7lBW/xdyNBMhy4KZiSiw+sNYV6RielKXp6lm3T3rdqd9DgvrYh1kvrfa39zFWljEiAbK2h+P0U0V7DfDNxMYzYAz9e0ai+7Oa6RZLt1qDKVEA0X4AHQYQsaTumNOBaV/r6ACFiDrVsUnpGvQHYzAlCiBar3NQQNW+Wx2d09Q03VKpbdcJZpraVbp+qp7F7I4CiHLn9Znaq67gKffMT27xrFLXrqHW0y5K7RUZTIkAiL4W66txtJLy104nAY5io1BHk6FTGrUyWYfRDaJEAERZVC8JqFbK1UPrjh4X0JdoJumI069Xz2jaXBW2GJD5pybl6qFcgdr551JfAX0TUXqHj9Vv0m9NAzK/3k2vHkPbEttvlC092o+Bo4BwVxMDMnfytEhQHwXrFr3O1blQg3r4rOtcj/V0NdFh20XTHTzQXwMyNwKaZnUaymkjPcZ6q6GUVjrMPhgDMnculeTlJzWnWIsMdfXYvGZ9V6unwAeBECcsGpDZE6YFdToQum7RXzrt/HPJr8A7gM/m77ZZjwZktl76oq+TOOoULcHXa13tHXfpRoHUo0yzWWNAZkupBDRn1lRXD5Tn16zramkK/LA6FDutdYZWBmS2iFsAddOM+fYqQwDW6EKvf7VHqEgxIBPZlRtwswazoFM6fHvVQLDEqrqN1a5S5UvsvRiQieR/AJ5QcwaiLo+paf7gqr2+WprSu+EGZCJ5k/zkmrCzep+t6R2w2Dm/BmQSdN8HXlwzBpUw8+M167paHgWU7/32PF3V78WATLTS2yu9xapTlOFpcCd01HEscB398dIfsV6LAZnI/UngyJrqK3XaK2vWdbU8ChT5um5AJpOnZddaV1WnaEGjTj906U+BNhmBk600IBPpTm1wHpf3fiSHXHLD9cDOya0TGxqQiXC6baqbqOajwLGJmrtZmgK3AtrS3GsxIBO5tWlH+cfrFC3JLr6Qro6hI6qj/ey9pwM3IJMI0sERdY8DVe69c0cUfENwRV/SH9q3oQZkoniTpe5a+qAjbFz6U0AHPWzV33D3j2RAJoo3vYRfW50+3/ecTet4NwAr+nbegMxWXFeG39SchOOj7Hqrae/Qqylf4259O2FAZiv+PkBvqOqUPYHL61R0nSwKNHnLmGVA32LNlfFKYI8G6v62xGW/gX1jqqpX8IKk1+IryFy5dTJi3TwlxwEf6nXGpncw7b35S9/uG5C5ijc5dkZp064Ctu174qZsvAuAl5fw2YDMVb3p3oN3l9wSWiJoCox5CPClAuP6Ne88ov+92uJZd++BUqpps1Xv64RKBEyBMZuedJnVRF9B5pez6dLqNzQ4DSXrBE5BZzoGtljOeAMyf4TdBqxsuINNqdrqLpefgrjO4qJuq3R7VawYkIWlb3oVUU9K9PmqYrM5roF/Behb079KuhUBkKgZplKuIprLi4F9S07qCMb+T/V9qe7r9s5cjgCInIuaozDlKiJ/dNCZ3m65pCmg29t1aU3ztooCSNQst7qK6Ays3yXIfjiwJqHdtDfRifk3RhEhCiCR86TrDcr+wH8TJm1VlYcvoenUNbmwSmGnEyvDlCiASJC1gfOKfwE4InHWnl61PTix/TQ0OwN4O6Bnj1AlEiDLG6yBKiHi0cDJLQbepwJFuxFd7lfgHOBzwBVRBYkEiDRaVj3grg4q2IHAeS1texEw85vGNVx3A8oirKNbez8IruncRQNkxn7dux8AKB2aUhJEKdqWq+eRazIZtDugjLp6EbA1oOM1tXRlTOUu4JZqI5ryqegPjCAZRIkKyIbi7QJsuoSa9/Wo9mUdj6V8hwJl6HkP9bCtPygCZLBlCIAMVlwbPnwFDMjw59AedKiAAelQXHc9fAUMyPDn0B50qIAB6VBcdz18BQzI8OfQHnSogAHpUFx3PXwFDMjw59AedKiAAelQXHc9fAUMyPDn0B50qIAB6VBcdz18BQzI8OfQHnSogAHpUFx3PXwFDMjw59AedKjA/wD3P1bnMl4L7QAAAABJRU5ErkJggg==;labelBorderColor=none;" vertex="1" parent="1">
          <mxGeometry x="630" y="460" width="130" height="130" as="geometry" />
        </mxCell>
        <mxCell id="W6AtyXK3xE8ZlmAjTYDJ-9" value="" style="endArrow=classic;html=1;rounded=0;exitX=0.5;exitY=1;exitDx=0;exitDy=0;entryX=0.25;entryY=0;entryDx=0;entryDy=0;" edge="1" parent="1" source="W6AtyXK3xE8ZlmAjTYDJ-2" target="W6AtyXK3xE8ZlmAjTYDJ-8">
          <mxGeometry width="50" height="50" relative="1" as="geometry">
            <mxPoint x="510" y="510" as="sourcePoint" />
            <mxPoint x="560" y="460" as="targetPoint" />
          </mxGeometry>
        </mxCell>
        <mxCell id="W6AtyXK3xE8ZlmAjTYDJ-18" value="â‘¡" style="edgeLabel;html=1;align=center;verticalAlign=middle;resizable=0;points=[];fontSize=13;fontFamily=Times New Roman;" vertex="1" connectable="0" parent="W6AtyXK3xE8ZlmAjTYDJ-9">
          <mxGeometry x="-0.2282" relative="1" as="geometry">
            <mxPoint x="17" y="-1" as="offset" />
          </mxGeometry>
        </mxCell>
        <mxCell id="W6AtyXK3xE8ZlmAjTYDJ-17" value="" style="endArrow=classic;html=1;rounded=0;exitX=0;exitY=1;exitDx=0;exitDy=0;entryX=0.75;entryY=0;entryDx=0;entryDy=0;" edge="1" parent="1" source="W6AtyXK3xE8ZlmAjTYDJ-4" target="W6AtyXK3xE8ZlmAjTYDJ-8">
          <mxGeometry width="50" height="50" relative="1" as="geometry">
            <mxPoint x="510" y="510" as="sourcePoint" />
            <mxPoint x="560" y="460" as="targetPoint" />
          </mxGeometry>
        </mxCell>
        <mxCell id="W6AtyXK3xE8ZlmAjTYDJ-19" value="â‘¡" style="edgeLabel;html=1;align=center;verticalAlign=middle;resizable=0;points=[];fontFamily=Times New Roman;fontSize=13;" vertex="1" connectable="0" parent="W6AtyXK3xE8ZlmAjTYDJ-17">
          <mxGeometry x="-0.1996" y="3" relative="1" as="geometry">
            <mxPoint x="-19" y="-1" as="offset" />
          </mxGeometry>
        </mxCell>
        <mxCell id="W6AtyXK3xE8ZlmAjTYDJ-21" value="&lt;font style=&quot;font-size: 15px;&quot;&gt;source image&lt;/font&gt;" style="text;html=1;strokeColor=none;fillColor=none;align=center;verticalAlign=middle;whiteSpace=wrap;rounded=0;fontFamily=Times New Roman;fontSize=12;labelBorderColor=default;" vertex="1" parent="1">
          <mxGeometry x="770" y="380" width="60" height="30" as="geometry" />
        </mxCell>
        <mxCell id="W6AtyXK3xE8ZlmAjTYDJ-30" value="" style="curved=1;endArrow=classic;html=1;rounded=0;exitX=0.25;exitY=1;exitDx=0;exitDy=0;" edge="1" parent="1" source="W6AtyXK3xE8ZlmAjTYDJ-2">
          <mxGeometry width="50" height="50" relative="1" as="geometry">
            <mxPoint x="510" y="510" as="sourcePoint" />
            <mxPoint x="630" y="525" as="targetPoint" />
            <Array as="points">
              <mxPoint x="460" y="520" />
              <mxPoint x="508" y="580" />
              <mxPoint x="600" y="590" />
            </Array>
          </mxGeometry>
        </mxCell>
        <mxCell id="W6AtyXK3xE8ZlmAjTYDJ-31" value="â‘¢" style="edgeLabel;html=1;align=center;verticalAlign=middle;resizable=0;points=[];fontFamily=Times New Roman;fontSize=13;" vertex="1" connectable="0" parent="W6AtyXK3xE8ZlmAjTYDJ-30">
          <mxGeometry x="-0.4444" y="5" relative="1" as="geometry">
            <mxPoint x="-12" y="4" as="offset" />
          </mxGeometry>
        </mxCell>
        <mxCell id="W6AtyXK3xE8ZlmAjTYDJ-32" value="&lt;span style=&quot;font-size: 15px;&quot;&gt;command&lt;/span&gt;" style="text;html=1;strokeColor=none;fillColor=none;align=center;verticalAlign=middle;whiteSpace=wrap;rounded=0;fontFamily=Times New Roman;fontSize=12;labelBorderColor=default;" vertex="1" parent="1">
          <mxGeometry x="470" y="450" width="100" height="30" as="geometry" />
        </mxCell>
        <mxCell id="W6AtyXK3xE8ZlmAjTYDJ-33" value="" style="curved=1;endArrow=classic;html=1;rounded=0;exitX=1;exitY=0.5;exitDx=0;exitDy=0;entryX=0.855;entryY=0.988;entryDx=0;entryDy=0;entryPerimeter=0;" edge="1" parent="1" source="W6AtyXK3xE8ZlmAjTYDJ-8" target="W6AtyXK3xE8ZlmAjTYDJ-4">
          <mxGeometry width="50" height="50" relative="1" as="geometry">
            <mxPoint x="520" y="530" as="sourcePoint" />
            <mxPoint x="570" y="480" as="targetPoint" />
            <Array as="points">
              <mxPoint x="920" y="560" />
              <mxPoint x="1000" y="520" />
              <mxPoint x="1030" y="410" />
            </Array>
          </mxGeometry>
        </mxCell>
        <mxCell id="W6AtyXK3xE8ZlmAjTYDJ-34" value="â‘£" style="edgeLabel;html=1;align=center;verticalAlign=middle;resizable=0;points=[];fontSize=13;fontFamily=Times New Roman;" vertex="1" connectable="0" parent="W6AtyXK3xE8ZlmAjTYDJ-33">
          <mxGeometry x="0.391" y="6" relative="1" as="geometry">
            <mxPoint x="16" y="5" as="offset" />
          </mxGeometry>
        </mxCell>
        <mxCell id="W6AtyXK3xE8ZlmAjTYDJ-35" value="&lt;font style=&quot;font-size: 15px;&quot;&gt;new image&lt;/font&gt;" style="text;html=1;strokeColor=none;fillColor=none;align=center;verticalAlign=middle;whiteSpace=wrap;rounded=0;fontFamily=Times New Roman;fontSize=12;labelBorderColor=default;" vertex="1" parent="1">
          <mxGeometry x="950" y="430" width="60" height="30" as="geometry" />
        </mxCell>
        <mxCell id="W6AtyXK3xE8ZlmAjTYDJ-38" value="&lt;span style=&quot;font-size: 15px;&quot;&gt;server instance&lt;/span&gt;" style="text;html=1;strokeColor=none;fillColor=none;align=center;verticalAlign=middle;whiteSpace=wrap;rounded=0;fontFamily=Times New Roman;fontSize=12;labelBorderColor=none;" vertex="1" parent="1">
          <mxGeometry x="665" y="600" width="60" height="30" as="geometry" />
        </mxCell>
      </root>
    </mxGraphModel>
  </diagram>
</mxfile>
